<svg width="317" height="214" viewBox="0 0 317 214" fill="none" xmlns="http://www.w3.org/2000/svg">
<path d="M146.235 211.525C146.235 211.525 144.043 208.031 144.043 200.157C144.043 192.283 147.445 188.792 147.445 188.792C143.756 200.023 151.364 211.532 151.364 211.532C151.593 211.103 153.786 207.855 154.016 202.084C154.016 202.084 156.09 207.037 154.353 211.532" stroke="#C1BBD1" stroke-linejoin="round"/>
<path d="M196.132 211.532C196.132 211.532 197.593 209.39 197.593 204.565C197.593 199.74 195.313 197.595 195.313 197.595C197.769 204.478 192.708 211.532 192.708 211.532C192.555 211.269 191.097 209.278 190.943 205.742C190.943 205.742 189.566 208.776 190.717 211.532" stroke="#C1BBD1" stroke-linejoin="round"/>
<path d="M262.883 160.881L276.821 174.121V83.8926" stroke="#C1BBD1" stroke-miterlimit="10"/>
<path d="M276.82 161.651L292.959 146.979" stroke="#C1BBD1" stroke-miterlimit="10"/>
<path d="M276.819 124.973L265.082 112.502" stroke="#C1BBD1" stroke-miterlimit="10"/>
<path d="M276.82 113.235L284.89 108.834" stroke="#C1BBD1" stroke-miterlimit="10"/>
<path d="M276.822 89.7616C276.822 88.2138 270.953 77.291 270.953 77.291" stroke="#C1BBD1" stroke-miterlimit="10"/>
<path d="M259.945 103.632C262.671 101.74 265.008 99.5053 265.983 95.4975C267.632 88.7185 265.555 81.428 266.043 74.5299C266.394 69.881 268.299 64.0199 271.305 60.436C275.164 55.822 280.076 59.1712 282.62 63.5224C286.959 70.9005 285.012 79.9601 284.988 88.0669C284.988 94.3343 286.889 99.74 291.973 103.569C296.534 107.013 301.852 110.117 303.747 115.862C305.806 122.13 295.6 120.494 292.695 123.02C287.461 127.574 298.179 138.13 301.168 141.146C308.648 148.717 323.095 162.418 312.921 174.883C306.557 182.696 300.291 180.99 293.366 181.27L289.643 181.221C288.639 181.207 287.642 181.392 286.71 181.767C285.778 182.141 284.929 182.696 284.214 183.401C283.499 184.105 282.931 184.944 282.544 185.87C282.156 186.795 281.956 187.788 281.956 188.792L281.795 213" stroke="#C1BBD1" stroke-miterlimit="10"/>
<path d="M249.802 111.768C249.085 112.944 248.516 114.21 248.109 115.537C247.334 117.995 248.214 119.19 249.802 119.906C255.653 122.576 271.073 118.403 246.372 145.52C245.803 146.138 245.275 146.735 244.763 147.332C244.425 147.708 244.124 148.077 243.809 148.446" stroke="#C1BBD1" stroke-miterlimit="10"/>
<path d="M20.9379 210.883C19.454 210.587 17.9945 210.231 16.577 209.817C10.7391 208.113 3.95158 205.208 1.6332 199.102C1.04975 197.522 0.865586 195.823 1.097 194.155C1.32842 192.487 1.96828 190.902 2.95999 189.539C4.0075 188.083 5.48256 186.988 7.18125 186.404C10.8718 185.237 14.9674 187.101 17.6943 189.835C20.4211 192.57 22.1948 196.106 24.3282 199.342C22.3904 195.005 20.4211 190.55 20.1383 185.809C19.9288 182.116 20.9379 178.11 23.4902 175.337C25.84 172.78 31.3322 170.781 34.5688 172.658C36.7057 173.898 37.5541 176.529 37.9242 178.967C38.9263 185.631 37.6379 192.399 36.353 199.015C37.2154 195.479 38.1407 191.908 39.9004 188.717C41.6601 185.526 44.3521 182.708 47.8052 181.527C50.2214 180.702 53.0949 180.789 55.12 182.346C57.0089 183.799 57.8539 186.251 58.1122 188.616C58.5452 192.58 57.6095 196.604 56.0173 200.255C50.0224 213.886 33.3677 213.37 20.9379 210.883Z" stroke="#C1BBD1" stroke-miterlimit="10"/>
<path d="M34.7422 204.712C34.7422 204.712 43.9587 207.404 47.2128 193.928" stroke="#C1BBD1" stroke-miterlimit="10"/>
<path d="M30.3429 182.19C28.6924 188.06 30.3429 205.664 30.3429 205.664" stroke="#C1BBD1" stroke-miterlimit="10"/>
<path d="M21.5378 204.197C21.157 204.131 17.4766 203.609 14.3363 202.154C11.9128 201.024 9.80078 199.335 9.80078 196.861" stroke="#C1BBD1" stroke-miterlimit="10"/>
<path d="M15.6733 196.861C15.6733 196.861 11.3766 200.961 14.7908 201.996" stroke="#C1BBD1" stroke-miterlimit="10"/>
<path d="M12.7383 205.665C13.2714 205.087 16.0564 206.259 17.8732 203.464" stroke="#C1BBD1" stroke-miterlimit="10"/>
<path d="M29.6092 190.259C28.6931 189.513 26.2876 190.259 25.9414 184.391" stroke="#C1BBD1" stroke-miterlimit="10"/>
<path d="M29.6094 195.395C29.6094 195.395 34.0108 194.007 34.0108 190.993" stroke="#C1BBD1" stroke-miterlimit="10"/>
<path d="M38.4102 204.197C38.4102 204.197 40.4961 199.122 41.3444 196.861" stroke="#C1BBD1" stroke-miterlimit="10"/>
<path d="M45.0156 199.299C45.0156 199.299 47.3536 200.91 50.1506 198.328" stroke="#C1BBD1" stroke-miterlimit="10"/>
<path d="M45.014 196.861C45.014 196.861 42.7995 196.226 43.8119 192.46" stroke="#C1BBD1" stroke-miterlimit="10"/>
<path d="M133.772 158.853V178.522H72.1523C73.9947 171.184 78.2256 164.674 84.1741 160.023C90.1227 155.372 97.4484 152.847 104.99 152.848H127.791C129.377 152.849 130.899 153.482 132.02 154.608C133.142 155.734 133.772 157.261 133.772 158.853V158.853Z" fill="#D2C8F0"/>
<path d="M148.349 123.984C148.349 123.984 149.295 123.76 149.608 127.146C149.922 130.533 152.398 138.036 148.349 137.878C144.301 137.72 95.5902 137.79 95.5902 137.79C95.5902 137.79 88.0786 139.968 87.1684 133.982C86.2582 127.996 86.6627 120.194 94.5754 117.637C94.5754 117.637 105.658 122.874 117.333 123.405C129.009 123.935 148.349 123.984 148.349 123.984Z" fill="#482E8F"/>
<path d="M243.416 153.742C243.416 153.742 240.794 151.936 234.566 154.295C228.338 156.655 216.619 159.579 210.595 178.523H133.294V158.952C133.293 157.367 132.661 155.848 131.538 154.728C130.414 153.608 128.89 152.979 127.301 152.979H100.431C93.4965 152.976 86.7281 155.096 81.0401 159.051C75.3521 163.007 71.0184 168.608 68.6245 175.099H67.7539V170.397C67.796 169.903 67.8557 169.416 67.9154 168.94C70.0885 152.401 84.5874 140.232 101.309 140.232H144.3V159.95C144.3 161.824 144.95 163.642 146.139 165.094C147.328 166.546 148.984 167.543 150.826 167.918C151.356 168.02 151.895 168.07 152.434 168.069H179.571C186.06 168.086 192.442 166.428 198.097 163.255C210.384 156.344 223.16 142.402 223.465 111.488V101.686L223.774 101.482C223.774 101.482 225.217 95.1071 231.919 96.546C232.83 97.1239 233.646 97.8396 234.337 98.6676C235.591 100.187 236.661 102.445 235.513 105.222C235.513 105.222 233.2 109.594 227.927 108.905C227.828 109.235 227.76 109.574 227.723 109.916C227.679 110.339 227.679 110.765 227.723 111.187C227.909 112.679 228.85 114.338 232.147 114.296H232.343C238.54 114.111 243.265 108.751 243.36 103.622C243.437 99.3503 241.215 94.5189 235.011 90.4892C235.002 90.4913 234.993 90.4913 234.983 90.4892C234.261 90.0097 233.514 89.5668 232.747 89.1623C232.115 88.8122 231.455 88.4866 230.757 88.1645C229.569 87.9309 228.435 87.4772 227.414 86.8271H247.239C247.846 86.8271 248.428 87.0676 248.858 87.4957C249.287 87.9238 249.528 88.5044 249.528 89.1098V119.744C249.528 120.044 249.47 120.341 249.355 120.618C249.24 120.896 249.071 121.148 248.859 121.36C248.646 121.573 248.394 121.741 248.116 121.856C247.838 121.971 247.54 122.03 247.239 122.03C246.711 122.027 246.187 122.128 245.698 122.328C245.21 122.528 244.765 122.823 244.392 123.196C244.018 123.568 243.723 124.011 243.522 124.499C243.321 124.986 243.22 125.508 243.223 126.035V142.14C243.214 144.796 244.053 147.386 245.618 149.534C247.184 151.683 249.394 153.279 251.929 154.092C252.059 154.134 252.186 154.176 252.315 154.211C258.077 155.811 263.311 158.903 267.486 163.173C271.661 167.443 274.628 172.739 276.086 178.523H215.461C215.98 176.583 222.022 155.878 243.416 153.742Z" fill="#D2C8F0"/>
<path d="M106.635 122.038C103.627 121.534 100.68 120.798 97.832 119.837L106.635 122.038Z" fill="#2E2E2E"/>
<path d="M79.4908 100.032C74.5397 99.0398 68.1798 98.1227 65.1846 93.5509C64.7606 92.9124 64.2272 92.1515 64.1109 91.3839C64.0949 91.2942 64.0869 91.2033 64.087 91.1122C64.0357 89.5803 65.8753 89.6788 67.0549 89.8622C69.869 90.2936 72.6488 90.905 75.4116 91.5605C76.2368 91.7507 77.0551 91.9466 77.8666 92.1481C78.0932 94.8304 78.6384 97.4766 79.4908 100.032V100.032Z" fill="black"/>
<path d="M222.211 97.5984C219.945 103.675 215.34 103.699 215.266 103.699C205.436 101.349 204.105 101.085 196.649 98.2833C173.746 89.6725 160.984 79.4244 154.19 71.0048C148.198 77.0118 146.51 79.9319 144.56 86.1754C144.444 86.5626 144.303 86.9423 144.139 87.3121C144.139 87.3121 144.139 87.3538 144.115 87.3712L143.716 88.209C143.713 88.2207 143.707 88.2315 143.698 88.2403C142.469 90.5763 138.778 93.7085 136.428 94.8139L93.4577 94.5011L75.6953 91.0839C72.8621 90.4164 70.0185 89.7907 67.1363 89.3457C66.2748 89.2102 65.0631 89.1267 64.4677 89.6586C64.3317 89.778 64.2267 89.9281 64.1614 90.0963C64.0962 90.2646 64.0727 90.4459 64.093 90.625V90.625C64.093 88.5844 65.1611 87.1869 66.4044 85.7095C67.7246 84.1174 69.0554 82.5252 70.3757 80.9435C77.8 72.152 85.0458 63.2144 92.4876 54.4437C94.3192 52.285 96.1858 50.1714 98.182 48.1655C105.162 41.1261 113.241 34.9556 122.083 30.3704C136.41 22.9833 147.526 20.2891 156.544 20.8871H156.656C157.416 20.9462 158.155 21.0226 158.89 21.1165L159.198 21.1582C166.111 22.1316 171.753 25.1177 176.708 29.3588C177.299 30.0377 177.827 30.7684 178.284 31.5419C180.312 34.9522 181.702 38.5988 183.124 42.2767C189.946 60.0058 202.385 75.7082 220.323 83.1962L220.382 84.5345V84.9656C220.382 84.8648 220.382 84.7292 220.382 84.5345C220.382 84.2217 220.358 83.7871 220.333 83.1962C220.333 83.1371 220.333 83.078 220.333 83.0189L221.657 83.7141L223.09 84.4859C223.086 84.5112 223.086 84.537 223.09 84.5623C223.482 90.187 223.251 94.8 222.211 97.5984Z" fill="url(#paint0_linear_326_3650)"/>
<path d="M29.6094 212.267H259.948" stroke="black" stroke-miterlimit="10"/>
<path d="M144.777 86.8271H160.382C171.546 86.8271 178.253 97.5724 176.876 108.542L169.99 158.716H152.865L149.613 123.966" stroke="black" stroke-miterlimit="10"/>
<path d="M148.668 51.6162C148.668 51.6162 141.064 85.8533 215.476 103.699C215.476 103.699 224.989 103.968 222.999 84.4444" stroke="black" stroke-miterlimit="10"/>
<path d="M153.581 124.239H135.964C110.115 124.239 90.5269 122.46 81.9898 104.064C80.2149 100.25 79.1211 96.1537 78.7578 91.9619" stroke="black" stroke-miterlimit="10"/>
<path d="M222.271 97.1394C226.853 97.1739 224.688 96.8704 229.158 98.0809C231.63 98.7707 233.775 99.995 233.782 103.051C233.782 107.031 225.121 107.389 227.737 111.88C230.53 116.684 239.376 112.117 241.126 109.01C248.914 95.1494 231.522 88.5278 221.066 83.8926" stroke="black" stroke-miterlimit="10"/>
<path d="M79.9496 100.031C74.8516 98.9996 68.3066 98.0459 65.219 93.2915C64.7824 92.6274 64.2332 91.8362 64.1135 91.0379C63.8248 89.1552 65.8738 89.2717 67.1483 89.4554C75.6931 90.7623 83.8929 93.7719 92.4975 94.5525C94.8951 94.768 97.3138 94.8739 99.722 94.8739H133.415C136.011 94.8637 138.536 94.0188 140.618 92.4631C142.7 90.9074 144.231 88.723 144.984 86.2305C146.646 80.8508 149.484 75.0897 154.314 70.6885" stroke="black" stroke-miterlimit="10"/>
<path d="M187.325 22.2738C186.98 22.2738 168.239 20.1309 159.449 21.0247" stroke="black" stroke-miterlimit="10"/>
<path d="M229.509 108.834C232.952 108.834 235.744 106.042 235.744 102.599C235.744 99.1549 232.952 96.3633 229.509 96.3633C226.065 96.3633 223.273 99.1549 223.273 102.599C223.273 106.042 226.065 108.834 229.509 108.834Z" fill="#482E8F"/>
<path d="M229.509 108.834C232.952 108.834 235.744 106.042 235.744 102.599C235.744 99.1549 232.952 96.3633 229.509 96.3633C226.065 96.3633 223.273 99.1549 223.273 102.599C223.273 106.042 226.065 108.834 229.509 108.834Z" stroke="black" stroke-miterlimit="10"/>
<path d="M229.509 108.834C232.952 108.834 235.744 106.042 235.744 102.599C235.744 99.1549 232.952 96.3633 229.509 96.3633C226.065 96.3633 223.273 99.1549 223.273 102.599C223.273 106.042 226.065 108.834 229.509 108.834Z" stroke="black" stroke-miterlimit="10"/>
<path d="M181.812 20.9796C182.341 22.3253 183.001 23.6174 183.783 24.8376C183.865 24.9709 184.445 24.7184 184.925 25.3953C185.911 26.7771 187.772 26.935 188.259 26.3668L188.213 26.3352L187.686 26.0196L188.875 26.2896L189.654 26.3177L190.803 25.2129C190.803 25.2129 185.331 21.162 188.074 18.3421C188.074 18.3421 188.074 18.3421 188.096 18.3211C188.155 18.2597 188.209 18.1928 188.256 18.1212C188.391 17.9107 188.227 17.9212 188.487 17.8827C188.682 17.6973 188.916 17.5568 189.173 17.4713C189.429 17.3858 189.702 17.3574 189.971 17.3881C190.274 17.3997 190.566 17.5066 190.803 17.6933C190.839 15.6415 190.65 13.3407 191.924 12.4324C192.437 11.3802 193.283 10.6787 194.636 10.7313C195.027 10.7489 195.383 10.7769 195.721 10.8225L199.382 11.6923C200.154 10.6401 200.727 11.5415 201.805 11.8922C202.175 12.0143 202.57 12.0456 202.955 11.9834C203.476 11.8954 203.957 11.6503 204.332 11.282C205.022 9.64057 205.146 7.58529 204.541 6.35073C204.541 6.35073 201.179 6.22798 198.848 5.61771C196.518 5.00744 195.682 0.865345 188.999 5.04953C188.65 5.26649 188.261 5.41201 187.854 5.47742C187.142 5.57212 186.014 5.6142 185.21 5.16878C185.15 5.13833 185.093 5.10315 185.039 5.06356C184.951 5.0142 184.871 4.9528 184.801 4.88119C185 5.07409 184.377 6.88033 184.057 7.77819C184.055 7.78862 184.055 7.79933 184.057 7.80976C184.018 7.93251 183.972 8.03422 183.943 8.11489V8.13944C183.93 8.17762 183.914 8.21508 183.897 8.25168C183.58 8.94422 183.168 9.59084 182.673 10.1737L182.431 10.4928C182.107 10.9083 181.825 11.3548 181.591 11.8256C180.211 14.656 180.62 17.9353 181.812 20.9796Z" fill="#130144"/>
<path d="M188.361 25.9099C189.526 26.0314 190.62 25.83 190.836 24.7537L190.873 24.5697C190.873 24.5697 185.844 21.0594 188.206 17.952C188.206 17.952 188.206 17.952 188.227 17.9311C188.247 17.9103 188.295 17.8339 188.33 17.7923C188.364 17.7506 188.367 17.7506 188.381 17.7332C188.463 17.643 188.525 17.57 188.604 17.4971C189.176 16.9277 189.632 16.8305 190.034 17.0076C190.134 17.0525 190.225 17.1147 190.304 17.1916C190.935 17.7367 191.295 19.0214 191.491 19.9692C191.23 18.0874 190.867 14.2925 191.916 12.1016C192.409 11.06 193.225 10.3656 194.528 10.4177L195.574 10.5079L199.101 11.369L201.436 11.5669L202.543 11.6572C203.046 11.57 203.509 11.3274 203.87 10.9628C205.55 9.36217 206.17 5.46654 205.214 3.609C205.214 3.609 201.851 3.69928 199.496 3.21666C197.14 2.73405 196.126 -1.7657 189.149 3.62984C188.025 4.32424 186.715 4.89713 185.447 4.28606C185.462 4.49408 185.462 4.70299 185.447 4.91102C185.405 5.26605 185.305 5.61132 185.148 5.93179C184.895 6.45954 184.627 6.9734 184.336 7.49421C184.334 7.50453 184.334 7.51513 184.336 7.52546C184.058 8.02196 183.76 8.51846 183.475 9.01148C183.307 9.30314 183.132 9.58438 182.995 9.86561C182.41 10.879 181.982 11.9774 181.727 13.1224C181.462 14.4507 181.392 15.8112 181.518 17.1603C181.622 18.32 181.852 19.4646 182.203 20.5734C182.838 22.6566 183.455 24.3162 185.601 25.1877C186.487 25.5462 187.414 25.7889 188.361 25.9099Z" stroke="black" stroke-miterlimit="10"/>
<path d="M201.995 14.9378C201.995 14.9378 198.503 14.8497 197.594 17.8718" stroke="black" stroke-miterlimit="10"/>
<path d="M203.379 12.0039L203.446 18.2493C203.456 18.4396 203.521 18.6219 203.633 18.7709C204.317 19.8959 204.942 21.0652 205.548 22.2448C205.623 22.3885 205.663 22.5494 205.665 22.7133C205.667 22.8771 205.63 23.039 205.56 23.1846C205.489 23.3303 205.385 23.4554 205.258 23.5489C205.13 23.6424 204.983 23.7014 204.829 23.7209C204.123 23.7809 203.412 23.7058 202.73 23.4993" stroke="black" stroke-miterlimit="10"/>
<path d="M200.882 18.8038C201.381 18.7601 201.744 18.2499 201.693 17.6642C201.642 17.0784 201.196 16.639 200.697 16.6827C200.197 16.7263 199.835 17.2365 199.886 17.8223C199.937 18.408 200.383 18.8474 200.882 18.8038Z" fill="black"/>
<path d="M203.461 24.4736C202.556 27.9571 199.263 34.1622 194.626 33.1704C192.45 32.7036 190.962 30.5277 189.523 29.0348" stroke="black" stroke-linecap="round" stroke-linejoin="round"/>
<path d="M249.427 91.9619C254.813 94.5947 258.482 99.7945 258.482 105.782C258.482 111.956 254.595 117.288 248.945 119.837L249.427 91.9619Z" fill="#482E8F"/>
<path d="M173.518 158.716H152.848V168.252H179.256V164.542C179.256 162.997 178.652 161.516 177.576 160.423C176.5 159.331 175.04 158.717 173.518 158.716V158.716Z" stroke="black" stroke-miterlimit="10"/>
<path d="M192.461 31.8096C188.141 32.8421 182.191 39.1452 182.191 39.1452" stroke="black" stroke-miterlimit="10"/>
<path d="M201.993 28.0972C201.993 28.0972 199.924 28.6414 199.059 25.9414" stroke="black" stroke-miterlimit="10"/>
<path d="M93.4263 117.637C93.4263 117.637 81.0944 126.468 90.1387 138.91" stroke="black" stroke-miterlimit="10"/>
<path d="M69.1894 175.588H64.0859V168.527C64.1348 168.033 64.1872 167.549 64.2501 167.069C66.4054 150.507 80.8356 138.321 97.4771 138.321H144.498V160.408C144.498 161.475 144.707 162.531 145.114 163.517C145.52 164.503 146.116 165.399 146.868 166.154C147.619 166.908 148.512 167.507 149.494 167.915C150.476 168.324 151.529 168.534 152.592 168.534H179.594C186.052 168.551 192.404 166.893 198.035 163.72C210.24 156.786 222.965 142.826 223.269 111.873V102.965" stroke="black" stroke-miterlimit="10"/>
<path d="M64.0861 90.4952C64.0835 90.175 64.1116 89.8554 64.1703 89.5405C64.4264 88.0026 65.3559 86.8361 66.3907 85.5968C67.7237 84.0068 69.0461 82.4168 70.3791 80.8372C77.812 72.0575 85.0696 63.132 92.5236 54.3732C94.3512 52.2173 96.2313 50.1066 98.2273 48.1035C105.222 41.0735 113.311 34.9114 122.168 30.3324C129.801 26.4129 137.911 22.9899 146.424 21.5041C149.708 20.9094 153.052 20.6939 156.386 20.8618H156.498C159.824 21.0374 163.104 21.7164 166.222 22.8754C170.133 24.3438 173.9 26.2185 176.598 29.3221C177.19 30.0001 177.718 30.7298 178.176 31.5023C180.207 34.9079 181.6 38.5496 183.024 42.2226C189.857 59.9278 202.317 75.609 220.284 83.0868C220.599 83.2291 220.915 83.3576 221.238 83.4826C221.357 83.5346 221.48 83.5763 221.589 83.618C221.894 83.7464 222.209 83.8575 222.536 83.9651" stroke="black" stroke-miterlimit="10"/>
<path d="M249.676 89.0273C252.715 90.2865 255.313 92.4225 257.141 95.1649C258.97 97.9073 259.946 101.133 259.946 104.432C259.946 107.732 258.97 110.957 257.141 113.699C255.313 116.442 252.715 118.578 249.676 119.837" stroke="black" stroke-miterlimit="10"/>
<path d="M133.775 178.522H67.7539C69.6059 171.184 73.8592 164.674 79.8391 160.023C85.819 155.372 93.1833 152.847 100.764 152.848H127.759C129.354 152.848 130.884 153.48 132.013 154.607C133.141 155.733 133.775 157.26 133.775 158.853V178.522Z" stroke="black" stroke-miterlimit="10"/>
<path d="M67.7539 178.522H133.597H210.799" stroke="black" stroke-miterlimit="10"/>
<path d="M228.488 86.8271H247.428C248.032 86.8271 248.611 87.068 249.038 87.4967C249.465 87.9253 249.705 88.5067 249.705 89.113V119.742C249.705 120.042 249.646 120.339 249.531 120.617C249.417 120.894 249.249 121.145 249.038 121.357C248.826 121.569 248.575 121.737 248.299 121.852C248.023 121.966 247.727 122.025 247.428 122.025C246.371 122.026 245.358 122.449 244.612 123.2C243.865 123.951 243.446 124.968 243.446 126.029V142.131C243.433 144.859 244.308 147.517 245.938 149.699C247.568 151.881 249.864 153.468 252.476 154.219C258.196 155.823 263.391 158.915 267.537 163.183C271.684 167.451 274.633 172.743 276.088 178.523H210.801C212.631 171.223 216.836 164.745 222.75 160.118C228.664 155.49 235.948 152.978 243.446 152.979" stroke="black" stroke-miterlimit="10"/>
<path d="M125.262 178.522C126.461 182.323 126.75 186.352 126.105 190.285C125.46 194.218 123.899 197.943 121.548 201.158C119.198 204.374 116.125 206.989 112.578 208.791C109.03 210.594 105.109 211.533 101.132 211.533C97.155 211.533 93.2339 210.594 89.6867 208.791C86.1395 206.989 83.0662 204.374 80.7159 201.158C78.3657 197.943 76.8046 194.218 76.1595 190.285C75.5143 186.352 75.8031 182.323 77.0025 178.522" stroke="black" stroke-miterlimit="10"/>
<path d="M267.573 178.522C268.773 182.322 269.063 186.352 268.418 190.285C267.773 194.217 266.213 197.942 263.862 201.158C261.512 204.373 258.439 206.988 254.891 208.791C251.344 210.593 247.422 211.533 243.445 211.533C239.467 211.533 235.546 210.593 231.998 208.791C228.451 206.988 225.377 204.373 223.027 201.158C220.677 197.942 219.116 194.217 218.471 190.285C217.827 186.352 218.116 182.322 219.317 178.522" stroke="black" stroke-miterlimit="10"/>
<path d="M243.445 190.26C245.673 190.26 247.479 188.453 247.479 186.225C247.479 183.997 245.673 182.19 243.445 182.19C241.216 182.19 239.41 183.997 239.41 186.225C239.41 188.453 241.216 190.26 243.445 190.26Z" fill="black"/>
<path d="M100.765 190.26C103.195 190.26 105.166 188.453 105.166 186.225C105.166 183.997 103.195 182.19 100.765 182.19C98.3338 182.19 96.3633 183.997 96.3633 186.225C96.3633 188.453 98.3338 190.26 100.765 190.26Z" fill="black"/>
<path d="M144.777 138.176H150.646" stroke="black" stroke-miterlimit="10"/>
<path d="M81.6904 209.332C80.0697 208.02 78.5945 206.545 77.2891 204.931" stroke="black" stroke-miterlimit="10"/>
<path d="M130.843 186.592C130.853 192.319 129.324 197.926 126.441 202.73" stroke="black" stroke-miterlimit="10"/>
<path d="M215.198 195.394C214.421 193.242 213.93 191.029 213.73 188.792" stroke="black" stroke-miterlimit="10"/>
<path d="M273.154 186.592C273.166 192.319 271.382 197.926 268.02 202.73" stroke="black" stroke-miterlimit="10"/>
<path d="M73.6218 199.796C71.6831 195.678 70.6799 191.164 70.6875 186.592" stroke="black" stroke-miterlimit="10"/>
<path d="M140.378 18.6055C140.378 18.6055 123.049 21.1319 104.434 36.9446" stroke="black" stroke-miterlimit="10"/>
<defs>
<linearGradient id="paint0_linear_326_3650" x1="143.678" y1="20.8066" x2="143.678" y2="103.699" gradientUnits="userSpaceOnUse">
<stop stop-color="#DF438C"/>
<stop offset="1" stop-color="#DF3C56"/>
</linearGradient>
</defs>
</svg>
