<svg width="40" height="26" viewBox="0 0 40 26" fill="none" xmlns="http://www.w3.org/2000/svg">
<path opacity="0.9" d="M7.93238 25.0479C12.3133 25.0479 15.8648 21.6065 15.8648 17.3614C15.8648 13.1162 12.3133 9.6748 7.93238 9.6748C3.55145 9.6748 0 13.1162 0 17.3614C0 21.6065 3.55145 25.0479 7.93238 25.0479Z" fill="url(#paint0_linear_326_3724)"/>
<path d="M18.8606 25.0528C26 25.0528 31.7877 19.4446 31.7877 12.5264C31.7877 5.60827 26 0 18.8606 0C11.7212 0 5.93359 5.60827 5.93359 12.5264C5.93359 19.4446 11.7212 25.0528 18.8606 25.0528Z" fill="#482E8F"/>
<path opacity="0.9" d="M29.6095 25.0533C34.9662 25.0533 39.3088 20.8453 39.3088 15.6546C39.3088 10.4638 34.9662 6.25586 29.6095 6.25586C24.2527 6.25586 19.9102 10.4638 19.9102 15.6546C19.9102 20.8453 24.2527 25.0533 29.6095 25.0533Z" fill="url(#paint1_linear_326_3724)"/>
<path d="M23.8884 17.1162H0V17.6054H23.8884V17.1162Z" fill="white"/>
<path d="M28.5053 14.5139H0.578125C0.578125 14.5139 0.653313 14.3162 0.685537 14.2485C0.717761 14.1809 0.79832 14.0195 0.79832 14.0195H28.5053V14.5139Z" fill="white"/>
<path d="M27.2888 11.4179H2.90625L3.10496 11.2618L3.34664 11.09L3.59369 10.9287H27.2888V11.4179Z" fill="white"/>
<path d="M27.0517 11.6937C27.378 11.6937 27.6425 11.4374 27.6425 11.1213C27.6425 10.8051 27.378 10.5488 27.0517 10.5488C26.7254 10.5488 26.4609 10.8051 26.4609 11.1213C26.4609 11.4374 26.7254 11.6937 27.0517 11.6937Z" fill="white"/>
<path d="M28.5126 14.7904C28.8389 14.7904 29.1034 14.5341 29.1034 14.218C29.1034 13.9018 28.8389 13.6455 28.5126 13.6455C28.1864 13.6455 27.9219 13.9018 27.9219 14.218C27.9219 14.5341 28.1864 14.7904 28.5126 14.7904Z" fill="white"/>
<path d="M23.7431 17.934C24.0694 17.934 24.3339 17.6777 24.3339 17.3615C24.3339 17.0454 24.0694 16.7891 23.7431 16.7891C23.4168 16.7891 23.1523 17.0454 23.1523 17.3615C23.1523 17.6777 23.4168 17.934 23.7431 17.934Z" fill="white"/>
<defs>
<linearGradient id="paint0_linear_326_3724" x1="0" y1="17.3614" x2="15.8648" y2="17.3614" gradientUnits="userSpaceOnUse">
<stop stop-color="#D93192"/>
<stop offset="1" stop-color="#DB2225"/>
</linearGradient>
<linearGradient id="paint1_linear_326_3724" x1="739.017" y1="571.683" x2="1439.69" y2="571.683" gradientUnits="userSpaceOnUse">
<stop stop-color="#D93192"/>
<stop offset="1" stop-color="#DB2225"/>
</linearGradient>
</defs>
</svg>
