<svg width="406" height="312" viewBox="0 0 406 312" fill="none" xmlns="http://www.w3.org/2000/svg">
<path d="M44.1758 79.8467V128.206H47.1745H382.396H385.416V79.8467" stroke="#C1BBD1" stroke-miterlimit="10"/>
<path d="M47.1781 128.202C47.1781 128.202 42.4031 202.813 110.284 204.768" stroke="#C1BBD1" stroke-miterlimit="10"/>
<path d="M281.098 164.251C282.017 168.796 283.728 173.145 286.154 177.098C287.894 179.981 289.928 182.676 292.224 185.14C293.024 185.992 293.855 186.844 294.707 187.657C296.614 189.453 298.623 191.135 300.726 192.696C303.465 194.718 306.374 196.499 309.42 198.021C318.701 202.672 329.261 204.892 339.288 203.132C343.725 202.362 347.983 200.787 351.854 198.485C358.439 194.562 363.568 188.952 367.614 182.529C372.44 174.861 375.707 166.023 378.067 157.576C380.55 148.58 382.395 139.349 382.395 129.982" stroke="#C1BBD1" stroke-miterlimit="10"/>
<path d="M27.6788 79.8474H401.534C402.246 79.8495 402.942 79.6403 403.534 79.2465C404.127 78.8527 404.589 78.2919 404.863 77.6351C405.137 76.9783 405.209 76.2551 405.072 75.557C404.934 74.859 404.592 74.2174 404.09 73.7136L367.538 37.1621H57.0401L24.974 73.8925C24.5197 74.4119 24.2247 75.0511 24.1242 75.7337C24.0237 76.4163 24.1221 77.1134 24.4074 77.7416C24.6927 78.3698 25.153 78.9025 25.7332 79.276C26.3133 79.6494 26.9888 79.8478 27.6788 79.8474Z" stroke="#C1BBD1" stroke-miterlimit="10"/>
<path d="M325.153 258.647C326.814 256.85 328.743 255.184 330.077 253.199C333.812 247.602 332.377 240.459 334.762 234.325C337.68 226.833 346.864 221.606 355.881 222.292C355.02 225.864 354.436 229.496 354.135 233.158C353.871 236.438 354.51 240.088 353.807 243.266C352.657 248.378 346.531 251.479 345.786 256.726C345.126 261.365 349.194 265.701 348.512 270.421C347.801 275.486 341.982 278.284 339.844 282.774C338.097 286.416 338.915 290.582 338.012 294.458C336.913 299.143 333.114 303.267 328.13 305.209C327.968 305.277 327.798 305.345 327.636 305.401C326.124 303.829 324.399 301.064 322.984 298.074" stroke="#C1BBD1" stroke-miterlimit="10"/>
<path d="M350.366 228.175C336.914 246.529 330.589 285.253 328.127 305.205C327.922 306.892 327.742 308.431 327.586 309.823" stroke="#C1BBD1" stroke-miterlimit="10"/>
<path d="M294.23 311.432C294.619 310.932 295.117 310.529 295.687 310.253C296.256 309.976 296.882 309.835 297.515 309.839H353.294C353.929 309.836 354.557 309.978 355.129 310.254C355.701 310.53 356.202 310.933 356.595 311.432" stroke="#C1BBD1" stroke-miterlimit="10"/>
<path d="M319.336 304.566C321.73 301.55 324.665 294.837 325.96 289.351C327.033 284.831 325.146 280.176 324.716 275.537C324.043 268.274 326.884 260.462 323.89 253.885C322.216 250.214 318.961 247.602 317.011 244.088C313.416 237.614 314.796 229.333 312.5 222.228C309.688 213.547 300.871 207.49 292.207 208.291C293.039 212.444 293.6 216.647 293.885 220.874C294.141 224.669 293.523 228.899 294.205 232.583C295.304 238.513 301.186 242.103 301.906 248.182C302.541 253.549 298.648 258.579 299.286 264.044C299.977 269.914 305.557 273.151 307.618 278.348C309.292 282.569 308.504 287.404 309.377 291.885C310.464 297.478 314.323 302.398 319.336 304.566Z" stroke="#C1BBD1" stroke-miterlimit="10"/>
<path d="M297.5 215.089C310.411 236.353 316.489 281.185 318.862 304.331C319.066 306.338 319.249 308.165 319.39 309.822" stroke="#C1BBD1" stroke-miterlimit="10"/>
<path d="M317.012 244.084C317.012 244.084 317.902 225.606 325.352 219.988C332.802 214.369 332.64 245.873 332.64 245.873" stroke="#C1BBD1" stroke-miterlimit="10"/>
<path d="M325.158 258.647C325.158 258.647 323.637 248.075 326.308 237.682" stroke="#C1BBD1" stroke-miterlimit="10"/>
<path d="M309.421 246.116H309.191" stroke="#C1BBD1" stroke-miterlimit="10"/>
<path d="M367.617 182.528V214.403V246.115H352.602" stroke="#C1BBD1" stroke-miterlimit="10"/>
<path d="M281.098 164.251V177.098V214.403V246.116H301.454" stroke="#C1BBD1" stroke-miterlimit="10"/>
<path d="M339.289 227.962V214.404V203.133" stroke="#C1BBD1" stroke-miterlimit="10"/>
<path d="M309.418 198.021V214.403V216.354" stroke="#C1BBD1" stroke-miterlimit="10"/>
<path d="M293.237 214.403H281.098V177.098H286.154" stroke="#C1BBD1" stroke-miterlimit="10"/>
<path d="M367.615 182.528V214.403H339.289H309.421H307.738" stroke="#C1BBD1" stroke-miterlimit="10"/>
<path d="M62.0273 181.839V214.403V246.116H90.3366H120.222H148.544V214.403V177.098V145.402H120.222" stroke="#C1BBD1" stroke-miterlimit="10"/>
<path d="M120.221 145.402V177.098V214.403V246.116H90.3359V214.403V201.642V177.098" stroke="#C1BBD1" stroke-miterlimit="10"/>
<path d="M90.3366 177.098H120.222H148.544V214.403H120.222H90.3366H62.0273V181.839" stroke="#C1BBD1" stroke-miterlimit="10"/>
<path d="M269.17 184.995V311.428H213.02L164.461 311.177L156.883 311.143V184.995H269.17Z" stroke="#C1BBD1" stroke-miterlimit="10"/>
<path d="M261.579 195.593V311.428H213.024L164.465 311.177V195.593H261.579Z" stroke="#C1BBD1" stroke-miterlimit="10"/>
<path d="M24.0565 311C24.0565 311 -13.784 273.157 7.48961 242.404C28.7632 211.652 78.4129 185.261 57.7266 135.17C37.0403 85.0792 74.0382 59.2203 110.176 61.7031C146.315 64.1859 243.699 86.5655 268.913 50.3664C294.128 14.1673 399.615 57.0057 382.035 184.609C364.455 312.213 268.913 311 268.913 311H24.0565Z" stroke="#C1BBD1" stroke-miterlimit="10"/>
<path d="M284.946 94.3848V94.3465C284.608 93.4936 276.303 73.3988 250.876 61.1595C250.628 61.0358 250.398 60.9079 250.15 60.8013C237.721 54.4931 223.898 51.4258 209.965 51.884H209.802C206.425 52.0085 203.06 52.3605 199.73 52.9374H199.696C198.023 53.2018 196.389 53.5387 194.754 53.931C194.452 54.0025 194.135 53.9831 193.843 53.8754C193.552 53.7677 193.299 53.5764 193.115 53.3255L186.483 44.0671L185.988 43.3762C185.943 43.3102 185.907 43.2385 185.881 43.163C185.523 42.0798 186.095 38.7022 186.095 37.8322C186.095 34.4547 185.489 28.5227 183.176 23.9723C183.321 23.725 184.349 21.7505 183.568 18.2536C183.534 18.0915 183.496 17.9124 183.445 17.7375C183.247 16.9522 182.985 16.1847 182.659 15.4432C182.591 15.247 182.501 15.0551 182.412 14.8419C181.968 13.9032 181.463 12.9943 180.901 12.1211C180.76 11.8737 180.598 11.6435 180.44 11.3918C180.282 11.1402 180.103 10.8971 179.907 10.6455C179.565 10.1508 179.16 9.61777 178.733 9.0847C178.413 8.69236 178.071 8.30002 177.734 7.94606C177.527 7.70472 177.301 7.47947 177.06 7.27225C176.763 6.96916 176.448 6.68433 176.117 6.41934C175.864 6.18363 175.597 5.96291 175.319 5.75833C175.225 5.67744 175.123 5.60602 175.016 5.5451C174.747 5.31211 174.461 5.09835 174.162 4.90541C173.859 4.69218 173.556 4.47895 173.253 4.32116L173.095 4.21455C172.809 4.03544 172.506 3.87765 172.203 3.71559C171.988 3.58089 171.762 3.46257 171.529 3.36163C171.298 3.2209 171.051 3.11429 170.799 2.99062L170.321 2.77739C170.018 2.63239 169.715 2.50872 169.395 2.38505C169.299 2.33183 169.198 2.29031 169.092 2.26137C168.714 2.09897 168.328 1.95662 167.935 1.83491C164.885 0.81425 161.708 0.215914 158.495 0.0565831C155.798 -0.105013 153.092 0.0798709 150.442 0.606711C150.173 0.662151 149.925 0.713331 149.695 0.785829C149.464 0.858327 149.123 0.909502 148.841 0.999058C136.605 4.41072 130.703 18.6416 132.713 30.4758C128.074 28.8937 123.077 27.9171 118.241 28.8596C104.157 31.6657 96.7784 50.8563 92.5276 62.9762C75.9899 110.258 98.1654 144.639 100.261 147.731C96.2486 147.627 92.257 148.339 88.5287 149.824C76.2204 154.908 71.5471 167.237 72.2726 181.382C72.2726 181.382 71.7221 226.386 96.7954 299.345H75.8234C74.2841 299.34 72.8057 299.946 71.7136 301.03C70.6215 302.114 70.0051 303.587 70 305.126C69.9949 306.664 70.6016 308.141 71.6865 309.232C72.7714 310.324 74.2457 310.939 75.785 310.945L82.972 311L83.0232 310.945H135.701L133.567 299.289L119.253 220.378L168.008 246.23C170.041 247.197 171.835 248.602 173.261 250.344C174.687 252.085 175.71 254.12 176.258 256.302V256.358C176.451 257.08 176.583 257.818 176.65 258.563L181.772 310.962H243.228C248.4 279.634 252.617 250.904 253.594 235.052C253.998 229.413 256.626 224.166 260.901 220.463C277.882 205.575 296.251 181.979 299.238 161.262C302.222 140.455 296.23 114.318 284.946 94.3848ZM129.5 112C129.5 112 125.825 107.294 123.503 95.2207C120 77 129.5 69 129.5 69C129.5 69 143 58.5 162.033 57C164.274 57.1621 163.988 63.1127 164.91 63.7865L166.19 66.6651C166.083 68.1406 165.213 69.7398 164.291 71.0363C163.608 71.9992 146.5 86.5 129.5 112Z" fill="white"/>
<path d="M166.367 132.139C168.275 107.901 143 95.2355 143 95.2355L165.981 69.9679C164.035 73.8804 171.929 80.3318 179.729 80.921C187.529 81.5102 197.284 72.5324 199.349 65.3222C201.414 58.112 200.139 54.0131 200.139 54.0131L210.259 53C269.11 54.6574 285 95.2355 285 95.2355C250.875 83.5025 244.639 113.009 244.639 113.009C250.693 122.389 253.522 136.928 253.522 136.928C259.186 161.59 235.598 195 235.598 195C223.345 182.377 161.133 174.442 159.765 176.476C159.765 176.476 170.501 161.276 166.367 132.139Z" fill="url(#paint0_linear_326_3567)"/>
<path d="M183.309 24.4298C181.624 20.383 177.377 17.4084 174.282 15.6895C173.107 15.0222 171.886 14.4353 170.628 13.9331C170.164 21.7389 160.01 26.1529 154.817 27.8884C153.008 28.4975 151.808 28.7937 151.808 28.7937C151.808 28.7937 151.271 28.2222 150.338 27.3002C149.049 26.0486 147.041 24.1169 144.716 22.1186C144.875 22.4857 147.385 28.3431 147.544 34.6345C147.578 35.423 147.566 36.2127 147.51 37L138.689 36.8415C139.549 33.2619 136.389 30.7587 136.389 30.7587C134.364 19.1815 140.309 5.2429 152.629 1.92201C152.917 1.8344 153.205 1.78433 153.489 1.71341C155.116 1.32506 156.777 1.0862 158.45 1H158.471C165.384 1.35045 173.71 3.64504 178.851 9.84877C182.29 14.0207 183.58 17.3583 183.902 19.7739C184.31 22.8153 183.309 24.4298 183.309 24.4298Z" fill="#130144"/>
<path d="M96.9047 300H133.857L135.999 311L75.832 310.944C75.832 310.944 65.5 305 75.8792 300H96.9047Z" fill="#DF4072"/>
<path d="M133.362 31C131.476 19.5101 137.019 5.67675 148.498 2.38092C148.766 2.29397 149.031 2.24429 149.299 2.1739C149.567 2.10351 149.752 2.05383 150 2" stroke="black" stroke-miterlimit="10"/>
<path d="M149.833 1.75952C156.282 0.0925145 171.159 0.509266 178.871 9.88617C186.582 19.2631 183.311 24.4516 183.311 24.4516C180.538 17.7169 170.72 13.9537 170.72 13.9537C170.097 24.4558 152.038 28.8025 152.038 28.8025C152.038 28.8025 148.962 25.5727 145 22.1345C145.158 22.5012 147.649 28.3524 147.807 34.637C147.838 35.4247 147.826 36.2135 147.772 37" stroke="#130144" stroke-miterlimit="10"/>
<path d="M231.747 95C244.404 109.694 254.402 128.463 253.988 148.505C253.569 169.974 239.722 187.017 230 205" fill="url(#paint1_linear_326_3567)"/>
<path d="M231.747 95C244.404 109.694 254.402 128.463 253.988 148.505C253.569 169.974 239.722 187.017 230 205" stroke="black" stroke-miterlimit="10"/>
<path d="M229.808 192C229.808 192 222.148 211.726 254 231" stroke="black" stroke-miterlimit="10"/>
<path d="M181 22C185.263 26.4228 186.223 34.8568 186.223 39.1353C186.223 40.0734 185.566 43.9105 186.116 44.6533L193.232 54.5474C193.413 54.7993 193.666 54.9913 193.957 55.0988C194.249 55.2062 194.567 55.2241 194.869 55.1501C223.203 48.4394 255.383 58.2359 275.498 81.7932C292.658 101.849 302.992 136.124 299.228 162.016C296.243 182.636 277.911 206.121 260.934 220.943C258.819 222.764 257.086 224.982 255.832 227.471C254.579 229.96 253.831 232.67 253.631 235.447C252.638 251.224 248.447 279.819 243.275 311" stroke="black" stroke-miterlimit="10"/>
<path d="M201 54C201 54 199.184 77.0973 184.391 79.7509C169.599 82.4046 164.111 71.1956 164.111 71.1956C163.59 71.6202 163.087 72.0448 162.588 72.5076C154.036 80.0849 146.263 88.4756 139.381 97.5579C135.631 102.51 132.166 107.666 129 113" stroke="black" stroke-miterlimit="10"/>
<path d="M135.579 311L119 221L168.127 246.686C170.528 247.815 172.592 249.536 174.119 251.682C175.645 253.829 176.582 256.328 176.838 258.936L182 311" stroke="black" stroke-miterlimit="10"/>
<path d="M82.8439 311L75.641 310.94C74.125 310.894 72.6872 310.261 71.6336 309.177C70.58 308.092 69.9939 306.641 70 305.134C70.0062 303.626 70.6041 302.18 71.6664 301.104C72.7288 300.028 74.1717 299.407 75.688 299.373H96.7062C71.5837 226.593 72.1187 181.692 72.1187 181.692C71.3868 167.568 76.0775 155.264 88.4162 150.21C98.6407 146.006 110.868 148.759 120.643 152.915C128.775 156.374 136.376 160.918 143.694 165.832C147.285 168.244 150.816 170.746 154.334 173.26C155.271 173.928 158.083 176.723 159.256 176.489C159.256 176.489 169.527 159.293 166.412 136" stroke="black" stroke-miterlimit="10"/>
<path d="M171 127C167.379 135.766 149.549 159.557 140 163" stroke="black" stroke-miterlimit="10"/>
<path d="M137.219 132L129.449 112.724C125.431 103.844 122.139 93.8789 123.026 83.9866C123.396 79.9289 124.424 75.7986 126.671 72.3474C128.493 69.5155 131.416 67.9352 134.211 66.2608C135.626 65.4066 137.767 64.1252 137.979 62.327C138.353 59.1064 133.663 57.966 131.344 58.0215C127.996 58.0728 125.431 59.73 122.088 58.769C120.571 58.3753 119.202 57.5466 118.146 56.384C117.09 55.2214 116.393 53.775 116.141 52.2211C115.826 50.2307 116.094 48.2019 116.408 46.2157C116.901 43.1319 117.683 38.6769 120.975 37.3785C121.091 37.3149 121.215 37.2674 121.344 37.2375C121.368 37.2297 121.393 37.2297 121.416 37.2375C121.477 37.2061 121.544 37.1927 121.612 37.1991C122.92 36.9457 124.263 36.9341 125.575 37.1649" stroke="black" stroke-miterlimit="10"/>
<path d="M100.858 149C100.858 149 75.8433 113.744 93.03 64.3506C97.2442 52.2997 104.581 33.1848 118.544 30.3728C123.989 29.2939 129.667 30.7084 134.761 32.6751C136.31 33.274 139.166 34.7268 138.992 36.7445C138.912 37.3736 138.588 37.9457 138.091 38.3374" stroke="black" stroke-miterlimit="10"/>
<path d="M13 311H269" stroke="black" stroke-miterlimit="10"/>
<path d="M155.064 37H121.936C120.867 37 120 37.8952 120 38.9994V56.0006C120 57.1049 120.867 58 121.936 58H155.064C156.133 58 157 57.1049 157 56.0006V38.9994C157 37.8952 156.133 37 155.064 37Z" fill="#482E8F"/>
<path d="M155.064 37H121.936C120.867 37 120 37.8952 120 38.9994V56.0006C120 57.1049 120.867 58 121.936 58H155.064C156.133 58 157 57.1049 157 56.0006V38.9994C157 37.8952 156.133 37 155.064 37Z" stroke="black" stroke-miterlimit="10"/>
<path d="M186 41C186 41 185.966 41.6148 185.807 42.6063C185.287 45.9964 183.424 53.807 177.097 56.8205C171.049 59.691 164.846 58.3185 162 57.418L164.717 63.566L166.005 66.4885L166.061 66.5968C166.285 67.1094 166.347 67.6795 166.238 68.229C166.129 68.7785 165.854 69.2805 165.451 69.6665L164.095 70.9264L164.022 71" stroke="black" stroke-miterlimit="10"/>
<path d="M173.5 37C178.194 37 182 33.1944 182 28.5C182 23.8056 178.194 20 173.5 20C168.806 20 165 23.8056 165 28.5C165 33.1944 168.806 37 173.5 37Z" stroke="black" stroke-miterlimit="10"/>
<path d="M147 37.4059C147.283 36.5506 147.703 35.7483 148.245 35.0314C148.969 34.0783 149.903 33.3082 150.973 32.7821C152.042 32.2561 153.219 31.9884 154.409 32.0004C155.599 32.0124 156.77 32.3036 157.829 32.8511C158.888 33.3986 159.807 34.1874 160.511 35.1548C161.216 36.1223 161.688 37.242 161.889 38.4252C162.091 39.6085 162.016 40.8228 161.672 41.9721C161.328 43.1213 160.723 44.1739 159.906 45.0466C159.089 45.9193 158.081 46.5881 156.963 47" stroke="black" stroke-miterlimit="10"/>
<path d="M161 36C161 36 162.099 31.6361 167 32.0245" stroke="black" stroke-miterlimit="10"/>
<path d="M172.5 34C173.881 34 175 33.1046 175 32C175 30.8954 173.881 30 172.5 30C171.119 30 170 30.8954 170 32C170 33.1046 171.119 34 172.5 34Z" fill="black"/>
<path d="M167.195 49.0003C167.195 49.0003 175.195 51.5003 175.303 44.0004" stroke="black" stroke-miterlimit="10"/>
<path d="M151 46C152.105 46 153 45.1046 153 44C153 42.8954 152.105 42 151 42C149.895 42 149 42.8954 149 44C149 45.1046 149.895 46 151 46Z" fill="white"/>
<path d="M177 259C176.387 256.211 172.027 232.969 173.199 221" stroke="black" stroke-miterlimit="10"/>
<path d="M329.5 154C341.926 154 352 143.926 352 131.5C352 119.074 341.926 109 329.5 109C317.074 109 307 119.074 307 131.5C307 143.926 317.074 154 329.5 154Z" fill="#D2C8F0"/>
<path d="M321.288 124.972C321.473 124.2 321.774 123.461 322.179 122.782C322.868 121.597 323.959 120.707 325.248 120.28C326.537 119.852 327.935 119.916 329.18 120.46C329.993 120.817 330.713 121.361 331.284 122.049C331.854 122.736 332.26 123.549 332.468 124.422C333.544 123.803 334.789 123.555 336.015 123.715C337.242 123.875 338.384 124.435 339.271 125.31C340.157 126.185 340.74 127.329 340.931 128.569C341.123 129.809 340.912 131.078 340.332 132.186C339.111 134.516 336.685 136.326 334.414 137.527C333.225 138.154 331.975 138.655 330.685 139.024C330.03 139.214 326.322 140.386 325.872 139.87C322.905 136.504 320.075 129.899 321.288 124.972Z" fill="white"/>
<path d="M87 271C110.196 271 129 251.972 129 228.5C129 205.028 110.196 186 87 186C63.804 186 45 205.028 45 228.5C45 251.972 63.804 271 87 271Z" fill="#D2C8F0"/>
<path d="M70.5619 217.204C70.919 215.779 71.5018 214.414 72.2899 213.16C75.1713 208.637 80.865 206.75 85.9453 208.866C87.5303 209.527 88.9343 210.533 90.0467 211.804C91.1591 213.076 91.9497 214.578 92.3561 216.194C94.4535 215.046 96.8818 214.584 99.2754 214.879C101.669 215.173 103.898 216.208 105.628 217.826C107.358 219.445 108.495 221.561 108.867 223.855C109.239 226.149 108.827 228.497 107.692 230.547C105.312 234.861 100.586 238.207 96.149 240.427C93.8292 241.584 91.3932 242.511 88.8785 243.195C87.5825 243.544 80.3682 245.71 79.4913 244.762C73.7155 238.531 68.1946 226.319 70.5619 217.204Z" fill="white"/>
<path d="M222.5 39C229.956 39 236 32.9558 236 25.5C236 18.0442 229.956 12 222.5 12C215.044 12 209 18.0442 209 25.5C209 32.9558 215.044 39 222.5 39Z" fill="#D2C8F0"/>
<path d="M217.173 21.9748C217.283 21.511 217.463 21.0674 217.708 20.6601C218.122 19.9545 218.774 19.4248 219.543 19.169C220.312 18.9132 221.147 18.9487 221.893 19.269C222.381 19.4827 222.814 19.8084 223.156 20.2206C223.499 20.6328 223.743 21.1201 223.868 21.644C224.515 21.2698 225.264 21.119 226.003 21.2145C226.742 21.31 227.43 21.6465 227.963 22.1734C228.497 22.7002 228.847 23.3886 228.96 24.1347C229.073 24.8808 228.944 25.6441 228.592 26.3092C227.86 27.7088 226.403 28.7945 225.035 29.5155C224.321 29.8913 223.571 30.1925 222.797 30.4146C222.403 30.5291 220.173 31.2289 219.905 30.9235C218.144 28.892 216.445 24.9309 217.173 21.9748Z" fill="white"/>
<defs>
<linearGradient id="paint0_linear_326_3567" x1="214" y1="53" x2="214" y2="195" gradientUnits="userSpaceOnUse">
<stop stop-color="#DE438C"/>
<stop offset="1" stop-color="#DF3B50"/>
</linearGradient>
<linearGradient id="paint1_linear_326_3567" x1="242" y1="95" x2="242" y2="205" gradientUnits="userSpaceOnUse">
<stop stop-color="#DE438C"/>
<stop offset="1" stop-color="#DF3B50"/>
</linearGradient>
</defs>
</svg>
